<?xml version="1.0" standalone="no"?>
<!DOCTYPE svg PUBLIC "-//W3C//DTD SVG 20010904//EN"
 "http://www.w3.org/TR/2001/REC-SVG-20010904/DTD/svg10.dtd">
<svg version="1.0" xmlns="http://www.w3.org/2000/svg"
 width="500.000000pt" height="500.000000pt" viewBox="0 0 500.000000 500.000000"
 preserveAspectRatio="xMidYMid meet">

<g transform="translate(0.000000,500.000000) scale(0.100000,-0.100000)"
fill="#000000" stroke="none">
<path d="M1804 3688 c-583 -600 -699 -721 -913 -948 -96 -102 -210 -222 -253
-266 l-78 -81 2 -194 3 -193 71 -41 c67 -38 112 -64 474 -281 85 -51 174 -103
198 -116 23 -12 106 -62 185 -110 78 -48 164 -99 191 -113 27 -14 67 -38 90
-53 22 -16 91 -57 151 -92 61 -35 175 -103 255 -151 80 -48 162 -96 182 -108
20 -11 85 -48 143 -83 206 -123 250 -148 260 -148 11 0 532 520 677 675 41 44
153 163 248 265 96 102 228 243 294 314 67 71 199 211 294 312 l172 182 0 229
0 230 -112 64 c-62 35 -169 97 -238 138 -69 41 -150 87 -180 103 -30 16 -104
58 -165 95 -60 36 -155 91 -210 123 -55 31 -148 86 -208 121 -59 35 -120 70
-135 78 -15 7 -79 44 -142 81 -107 63 -306 176 -530 300 -52 30 -128 73 -168
97 -40 24 -79 43 -86 43 -7 0 -220 -213 -472 -472z m542 374 c38 -21 114 -65
169 -97 55 -32 143 -81 195 -110 266 -145 784 -448 927 -541 45 -30 101 -64
125 -77 79 -42 208 -120 208 -124 0 -3 -30 12 -67 33 -38 21 -113 61 -168 89
-168 87 -520 277 -720 390 -104 59 -255 144 -335 188 -80 45 -201 113 -270
153 l-125 71 -135 -136 c-74 -76 -283 -290 -465 -477 -181 -186 -361 -370
-400 -409 -122 -122 -230 -238 -290 -310 -32 -38 -105 -120 -162 -181 -64 -70
-103 -119 -103 -133 0 -15 13 -29 43 -47 170 -101 218 -129 266 -156 l55 -31
34 39 c19 22 76 82 126 134 151 157 296 317 296 327 0 5 -44 34 -97 63 -159
88 -212 112 -232 105 -10 -3 -48 -42 -85 -86 -55 -65 -70 -78 -82 -68 -18 15
-30 2 492 533 329 335 425 427 436 419 15 -13 202 -115 333 -183 50 -25 155
-81 235 -124 80 -43 246 -133 370 -199 124 -66 290 -156 370 -200 80 -45 163
-90 184 -100 22 -10 114 -61 205 -112 91 -51 190 -104 219 -119 l52 -27 139
143 c77 78 138 145 136 149 -6 9 -201 123 -287 167 -40 21 -134 72 -208 114
-74 41 -157 86 -185 100 -60 29 -349 187 -565 308 -85 48 -175 98 -200 110
-25 13 -115 63 -201 111 -86 49 -159 89 -162 89 -3 0 -29 14 -57 30 -61 36
-72 37 -110 8 -16 -12 -33 -19 -36 -15 -7 6 71 98 88 105 5 2 52 -21 106 -51
53 -29 149 -82 212 -117 63 -34 152 -85 196 -111 45 -27 85 -49 88 -49 4 0 66
-34 139 -77 73 -42 193 -108 267 -148 74 -40 218 -117 320 -172 584 -315 689
-374 688 -388 0 -5 -103 -116 -227 -245 -125 -129 -264 -275 -310 -325 -46
-49 -92 -97 -101 -105 -9 -8 -47 -51 -86 -96 -96 -111 -207 -236 -285 -319
-36 -38 -75 -83 -88 -100 -12 -16 -44 -52 -70 -80 -26 -27 -80 -88 -121 -135
-41 -47 -102 -114 -136 -150 -35 -36 -76 -83 -92 -105 -16 -22 -41 -50 -55
-63 -30 -28 -20 -33 -242 101 -82 50 -164 98 -180 106 -17 9 -147 86 -288 171
-255 154 -321 193 -532 318 -60 36 -132 79 -160 97 -27 17 -57 34 -66 38 -9 3
-65 35 -124 72 -58 36 -166 100 -238 142 -73 42 -169 100 -215 130 l-83 54
103 112 c162 177 200 217 432 461 121 127 252 263 292 301 40 39 187 189 326
334 265 276 502 521 504 521 1 0 32 -17 70 -38z m-154 -229 c-33 -45 -178
-183 -193 -183 -7 0 33 47 91 105 103 103 141 132 102 78z m192 -39 c56 -31
138 -77 183 -103 45 -25 80 -47 78 -49 -5 -5 -227 112 -283 149 -24 16 -46 29
-51 29 -11 0 -48 29 -37 30 5 0 55 -25 110 -56z m-157 -241 c3 -7 9 -11 13 -8
5 3 16 -2 24 -11 9 -8 16 -13 16 -9 0 3 26 -8 58 -26 31 -18 104 -56 162 -85
58 -29 130 -67 159 -84 30 -18 109 -60 175 -95 239 -124 737 -392 954 -512 72
-40 136 -73 141 -73 11 0 181 179 181 190 0 5 -6 11 -12 13 -7 3 -8 6 -3 6 6
0 16 -3 24 -8 16 -10 6 -23 -125 -163 l-63 -67 -98 55 c-54 31 -123 71 -153
89 -30 18 -73 40 -95 49 -50 21 -198 107 -207 121 -4 5 -8 6 -8 2 0 -5 -20 3
-44 17 -24 14 -91 50 -148 79 -150 77 -432 230 -438 236 -3 3 -11 7 -19 9 -8
2 -44 20 -80 41 -36 21 -138 75 -226 121 -233 120 -364 193 -369 207 -3 7 36
-9 86 -34 49 -26 92 -53 95 -60z m615 -9 c93 -53 167 -98 164 -101 -5 -6 -167
80 -211 112 -16 12 -54 32 -82 45 -45 20 -68 40 -47 40 4 0 83 -43 176 -96z
m263 -144 c60 -31 126 -69 140 -80 6 -4 91 -49 190 -100 99 -51 196 -103 215
-115 19 -12 87 -49 150 -82 159 -83 233 -125 261 -146 13 -10 4 -7 -21 6 -25
13 -99 53 -165 87 -171 90 -249 131 -260 140 -5 4 -63 36 -128 70 -262 136
-447 237 -462 252 -14 13 20 0 80 -32z m-1763 -661 c57 -34 111 -67 121 -74
16 -11 11 -18 -48 -78 l-65 -66 -79 45 c-43 24 -82 44 -85 44 -16 0 -88 53
-80 59 5 3 33 34 63 69 29 34 57 62 62 62 5 0 55 -28 111 -61z m2990 -72 l-3
-104 -102 -104 c-55 -57 -126 -132 -156 -165 -31 -34 -123 -133 -206 -221 -82
-87 -213 -228 -290 -313 -77 -85 -154 -168 -170 -185 -87 -86 -216 -234 -313
-357 -70 -87 -214 -255 -293 -341 l-54 -58 -105 62 c-58 34 -178 106 -268 161
-89 54 -164 98 -167 98 -2 0 -86 49 -187 110 -178 106 -313 187 -718 426 -107
64 -256 152 -330 197 -74 44 -142 84 -150 88 -8 4 -50 29 -94 55 l-78 47 6 45
c3 25 8 48 11 50 3 3 29 -11 57 -30 29 -19 103 -64 163 -100 108 -65 426 -251
455 -268 41 -23 335 -199 410 -245 47 -29 130 -78 185 -110 55 -32 150 -89
210 -126 61 -37 182 -110 270 -162 88 -52 198 -117 243 -145 94 -58 96 -57
149 11 17 23 66 80 109 127 98 108 212 260 226 303 6 17 21 43 34 57 12 14 35
42 51 62 15 20 109 128 208 239 99 111 198 222 220 248 21 25 79 91 128 146
50 55 135 151 191 214 55 63 135 151 176 195 42 45 97 107 124 139 27 31 51
57 55 57 3 0 5 -47 3 -103z m-3129 -112 c65 -38 116 -71 115 -75 -2 -4 -58
-64 -124 -134 l-121 -128 -74 43 c-41 23 -109 62 -152 87 l-78 45 53 56 c29
31 86 91 127 133 l75 77 30 -18 c17 -10 84 -49 149 -86z m2894 -384 c-85 -86
-176 -183 -362 -385 -55 -60 -188 -201 -295 -314 -178 -187 -195 -203 -198
-178 -3 27 44 83 278 331 127 133 210 223 349 375 73 80 145 156 159 171 15
14 54 56 87 94 l60 69 3 -38 c3 -36 -2 -43 -81 -125z m-3361 90 c32 -21 84
-52 114 -68 30 -16 123 -70 205 -120 83 -49 229 -136 325 -193 96 -57 227
-135 290 -173 63 -39 147 -88 185 -110 39 -23 122 -72 185 -111 151 -92 178
-107 290 -173 52 -31 167 -98 255 -150 l159 -93 120 117 c66 65 101 96 79 68
-23 -27 -53 -61 -68 -75 -15 -14 -54 -60 -87 -102 -35 -45 -65 -75 -72 -71 -6
3 -54 31 -106 63 -52 31 -207 123 -345 205 -137 81 -261 155 -275 164 -14 10
-108 66 -210 126 -102 59 -203 120 -225 135 -22 14 -67 42 -100 60 -58 32
-154 89 -555 327 -102 61 -200 118 -217 127 -28 14 -33 22 -33 51 0 45 11 44
86 -4z"/>
<path d="M1738 3354 c-62 -63 -113 -120 -113 -127 0 -12 62 -49 275 -163 69
-37 204 -112 300 -166 96 -54 181 -98 189 -98 8 0 63 50 121 112 l106 111 133
-78 133 -78 -131 -131 -132 -131 -126 66 -127 65 -250 -250 c-214 -214 -473
-488 -540 -571 -10 -13 -16 -27 -12 -33 6 -9 179 -112 189 -112 3 0 32 -15 64
-34 89 -52 99 -53 131 -14 15 18 57 64 93 103 114 122 307 343 354 406 11 15
44 54 73 88 28 34 52 66 52 71 0 8 -36 30 -195 118 -44 24 -82 46 -84 48 -2 1
25 34 59 72 l63 69 146 -74 146 -75 137 143 c103 108 138 150 138 170 0 22
-16 34 -142 104 -79 43 -204 112 -278 154 -74 41 -166 91 -205 111 -38 20
-135 72 -215 116 -80 45 -166 90 -192 102 l-48 21 -112 -115z m247 16 c164
-94 256 -145 327 -181 46 -23 68 -40 68 -52 0 -9 11 -23 25 -29 14 -6 25 -14
25 -17 0 -4 -22 -29 -50 -56 -27 -27 -50 -52 -50 -55 0 -4 18 -16 40 -29 22
-12 40 -26 40 -31 0 -5 -12 -22 -26 -39 l-26 -31 -66 37 c-37 20 -78 44 -92
54 -14 9 -65 37 -115 62 -49 25 -159 84 -244 131 -85 47 -158 86 -162 86 -28
0 -9 33 72 120 75 81 97 99 113 94 12 -3 66 -32 121 -64z m315 -889 c69 -39
125 -70 159 -88 2 -1 -30 -39 -69 -85 -40 -46 -74 -84 -76 -86 -1 -2 -64 32
-139 74 l-137 78 78 77 c44 42 84 77 89 78 6 0 48 -21 95 -48z m-205 -192 c50
-29 111 -64 137 -78 26 -14 48 -28 48 -31 -1 -3 -32 -39 -69 -80 l-69 -75 -49
23 c-50 25 -199 108 -220 125 -10 7 5 30 55 87 37 43 69 79 72 79 3 1 46 -22
95 -50z m-110 -234 c66 -38 121 -70 123 -71 2 -1 -24 -31 -57 -67 -34 -35 -73
-80 -88 -99 -15 -19 -38 -42 -51 -52 -22 -17 -25 -17 -60 -1 -62 29 -232 127
-238 137 -4 6 16 33 43 61 27 29 76 82 108 120 54 63 59 67 79 54 12 -7 75
-44 141 -82z"/>
<path d="M1860 3335 c-7 -8 -21 -15 -32 -15 -17 0 -18 -2 -8 -16 12 -13 16
-12 39 10 14 14 22 28 19 31 -3 3 -11 -1 -18 -10z"/>
<path d="M1927 3269 c-14 -8 -16 -14 -6 -25 16 -19 33 -18 25 3 -4 9 -1 20 6
25 19 12 -4 9 -25 -3z"/>
<path d="M2086 3251 c-4 -6 3 -15 14 -21 23 -12 27 2 6 19 -9 8 -16 8 -20 2z"/>
<path d="M2020 3205 c-7 -9 -9 -19 -5 -23 4 -4 10 -1 12 6 3 6 14 12 24 12 11
0 17 5 14 10 -9 15 -31 12 -45 -5z"/>
<path d="M2191 3106 c-9 -11 -8 -15 5 -20 8 -3 17 -6 18 -6 1 0 2 9 2 20 0 23
-9 26 -25 6z"/>
<path d="M2216 2414 c-23 -23 -20 -30 4 -9 11 10 20 20 20 22 0 7 -9 2 -24
-13z"/>
<path d="M2245 2370 c4 -6 11 -8 16 -5 14 9 11 15 -7 15 -8 0 -12 -5 -9 -10z"/>
<path d="M2047 2200 c-3 -11 -1 -23 5 -26 13 -9 42 21 34 35 -11 18 -33 13
-39 -9z m28 0 c3 -5 1 -10 -4 -10 -6 0 -11 5 -11 10 0 6 2 10 4 10 3 0 8 -4
11 -10z"/>
<path d="M1865 2010 c-4 -7 -3 -16 3 -22 14 -14 45 -2 40 15 -6 16 -34 21 -43
7z m35 -10 c0 -5 -7 -10 -15 -10 -8 0 -15 5 -15 10 0 6 7 10 15 10 8 0 15 -4
15 -10z"/>
<path d="M1836 1945 c10 -8 26 -14 34 -14 11 0 10 3 -4 14 -11 8 -27 15 -35
15 -11 0 -10 -4 5 -15z"/>
<path d="M1445 3056 c-41 -40 -75 -78 -75 -84 0 -16 297 -182 326 -182 17 0
156 162 146 171 -9 9 -311 169 -318 169 -2 0 -38 -33 -79 -74z m160 -7 c55
-29 165 -101 165 -109 0 -3 -22 -27 -48 -54 l-49 -47 -119 66 c-65 37 -123 71
-129 76 -6 6 11 29 45 64 51 51 55 54 75 40 11 -8 38 -24 60 -36z"/>
<path d="M1830 2839 c-29 -34 -71 -85 -93 -113 -22 -28 -70 -83 -106 -121 -83
-89 -191 -216 -191 -227 0 -4 10 -12 23 -19 76 -39 237 -133 237 -138 -1 -3
-51 -59 -113 -123 l-112 -117 -130 75 c-71 41 -129 80 -127 87 2 6 30 39 63
72 32 33 66 71 75 85 10 14 30 39 46 56 19 20 26 34 19 39 -6 3 -28 -12 -49
-36 -20 -23 -74 -84 -119 -135 -46 -50 -83 -98 -83 -105 0 -8 60 -47 133 -88
72 -41 146 -82 163 -92 l30 -18 56 57 c30 31 112 121 181 198 70 78 209 222
311 321 143 139 185 185 188 208 3 29 -1 31 -157 111 -88 46 -167 83 -175 83
-9 1 -40 -27 -70 -60z m283 -92 c37 -21 67 -43 67 -47 0 -4 -29 -33 -65 -65
l-65 -57 -135 73 c-74 40 -135 76 -135 80 0 4 26 37 57 73 l56 66 76 -42 c42
-23 106 -59 144 -81z m-243 -122 c68 -35 128 -69 134 -75 7 -7 -5 -26 -39 -60
l-49 -50 -115 61 c-64 34 -122 67 -130 74 -11 11 -7 21 30 64 24 28 44 51 45
51 1 0 57 -29 124 -65z m-187 -111 c29 -15 82 -44 120 -66 l67 -39 -67 -74
-67 -75 -106 56 c-144 77 -141 73 -92 126 22 24 50 55 62 71 12 15 24 27 26
27 3 0 28 -12 57 -26z"/>
<path d="M1663 2404 c-7 -18 17 -38 31 -24 11 11 1 40 -14 40 -6 0 -13 -7 -17
-16z"/>
<path d="M2685 2870 c-6 -11 31 -33 47 -28 6 2 -1 12 -15 21 -15 9 -28 13 -32
7z"/>
<path d="M2656 2784 c-10 -25 -1 -27 19 -4 15 17 16 20 3 20 -9 0 -19 -7 -22
-16z"/>
<path d="M2605 2770 c-3 -5 1 -13 10 -16 22 -9 29 1 11 15 -10 8 -16 9 -21 1z"/>
<path d="M2840 2630 c-25 -36 -25 -38 3 -33 16 3 50 -12 107 -48 47 -29 104
-63 128 -77 l43 -24 -48 -52 c-26 -28 -51 -52 -54 -54 -9 -4 -133 58 -212 105
-55 33 -57 36 -44 57 7 11 17 32 20 45 5 21 -1 17 -41 -22 -37 -37 -45 -51
-37 -63 6 -8 69 -47 140 -86 72 -39 145 -81 162 -94 l32 -25 38 43 c21 24 62
68 91 98 28 30 52 57 52 60 0 8 -208 126 -292 167 l-67 32 -21 -29z"/>
<path d="M3171 2313 c-56 -64 -101 -120 -101 -125 0 -5 21 -21 46 -36 181
-107 206 -125 190 -134 -12 -7 -49 10 -144 65 l-127 73 -85 -94 c-118 -132
-300 -343 -300 -348 0 -7 193 -130 242 -155 24 -12 54 -30 67 -40 l24 -19 37
43 c20 23 70 83 111 132 40 50 76 92 79 95 8 8 113 140 152 192 22 30 39 43
45 37 6 -6 18 3 33 23 13 18 60 72 103 121 44 48 77 91 74 94 -9 8 -169 99
-264 150 l-81 43 -101 -117z m156 6 c59 -36 171 -107 182 -115 6 -5 -121 -144
-132 -144 -16 0 -247 141 -247 151 0 12 112 149 122 149 4 0 38 -18 75 -41z
m-105 -353 l48 -27 -49 -62 c-89 -113 -71 -110 -216 -26 -69 41 -125 77 -125
80 0 3 29 40 65 82 l65 76 83 -48 c45 -27 103 -60 129 -75z m-261 -156 c68
-38 126 -70 131 -70 17 0 7 -27 -18 -51 -14 -13 -42 -45 -61 -71 -19 -27 -39
-48 -44 -48 -5 0 -68 36 -139 81 l-129 80 62 75 c34 41 65 74 69 74 4 0 62
-31 129 -70z"/>
<path d="M3312 2230 c-16 -25 -15 -31 2 -24 14 5 30 44 17 44 -3 0 -12 -9 -19
-20z"/>
<path d="M3047 1953 c-12 -11 -7 -33 7 -33 7 0 19 6 25 14 9 11 8 15 -5 20
-19 7 -19 7 -27 -1z m23 -13 c0 -5 -5 -10 -11 -10 -5 0 -7 5 -4 10 3 6 8 10
11 10 2 0 4 -4 4 -10z"/>
<path d="M3113 1913 c-17 -6 -16 -20 1 -26 8 -3 16 2 19 14 5 19 2 21 -20 12z"/>
<path d="M2492 2256 c-45 -52 -90 -108 -101 -126 -20 -34 -136 -166 -313 -359
-64 -69 -98 -114 -98 -129 0 -16 13 -29 51 -50 28 -15 107 -61 177 -104 l127
-76 28 26 27 26 0 -32 c0 -28 6 -35 53 -58 28 -15 102 -57 164 -95 l111 -67
65 76 c78 93 87 121 49 143 -15 9 -90 53 -167 99 -77 45 -144 86 -149 90 -12
12 121 183 290 370 52 58 105 122 114 140 11 21 12 20 -75 70 -95 54 -266 150
-269 150 -2 0 -39 -42 -84 -94z m235 -26 c73 -41 133 -79 133 -85 0 -5 -29
-41 -64 -80 l-63 -70 -44 24 c-63 35 -239 142 -239 146 0 2 6 10 13 17 7 7 34
39 61 71 27 32 54 57 60 55 6 -2 71 -37 143 -78z m-157 -196 l129 -76 -76 -92
c-42 -50 -80 -92 -84 -94 -13 -5 -279 141 -279 153 0 2 25 33 57 67 31 35 65
78 76 96 12 20 25 31 34 28 7 -3 71 -40 143 -82z m-257 -198 c51 -29 116 -66
145 -81 29 -16 51 -32 50 -36 -4 -12 -142 -170 -177 -203 l-30 -29 -68 40
c-37 22 -73 42 -78 44 -36 14 -135 75 -135 84 0 6 33 46 73 90 40 44 83 95 96
113 12 17 25 32 27 32 3 0 46 -24 97 -54z m363 -350 c49 -32 99 -65 112 -73
l23 -14 -53 -58 -53 -59 -40 23 c-22 12 -67 37 -100 55 -93 50 -145 81 -145
87 0 9 70 95 93 116 19 17 21 17 47 0 15 -10 67 -44 116 -77z"/>
<path d="M2640 2165 c0 -21 28 -31 43 -15 10 10 7 11 -12 5 -20 -6 -23 -4 -18
9 4 9 2 16 -3 16 -6 0 -10 -7 -10 -15z"/>
<path d="M2501 1973 c-1 -17 16 -25 25 -12 4 7 3 9 -4 5 -5 -3 -13 0 -15 6 -4
9 -6 10 -6 1z"/>
<path d="M2460 1921 c0 -5 7 -11 15 -15 8 -3 15 -1 15 3 0 5 -7 11 -15 15 -8
3 -15 1 -15 -3z"/>
<path d="M2445 1890 c3 -5 10 -10 16 -10 5 0 9 5 9 10 0 6 -7 10 -16 10 -8 0
-12 -4 -9 -10z"/>
<path d="M1498 2243 c7 -3 16 -2 19 1 4 3 -2 6 -13 5 -11 0 -14 -3 -6 -6z"/>
<path d="M1440 2201 c0 -9 24 -21 43 -21 6 0 2 7 -9 15 -22 17 -34 19 -34 6z"/>
</g>
</svg>
